custom-analysis
version=1
nRows=4
nColumns=98
inDegrees=no

This file contains tibia displacement and acting force.

Units are S.I. units (seconds, meters, Newtons, ...)
Angles are in degrees.

endheader
time	APT	SIT	knee_angle	aACL_R_force	pACL_R_force	aPCL_R_force	pPCL_R_force	aMCL_R_force	mMCL_R_force	pMCL_R_force	aLCL_R_force	mLCL_R_force	pLCL_R_force	aPCL_L_force	pPCL_L_force	aMCL_L_force	aLCL_L_force	aACL_R_length	pACL_R_length	aPCL_R_length	pPCL_R_length	aMCL_R_length	mMCL_R_length	pMCL_R_length	aLCL_R_length	mLCL_R_length	pLCL_R_length	aPCL_L_length	pPCL_L_length	aMCL_L_length	aLCL_L_length	aACL_R_strain	pACL_R_strain	aPCL_R_strain	pPCL_R_strain	aMCL_R_strain	mMCL_R_strain	pMCL_R_strain	aLCL_R_strain	mLCL_R_strain	pLCL_R_strain	aPCL_L_strain	pPCL_L_strain	aMCL_L_strain	aLCL_L_strain	femur_lat_meniscii_r.femur_lat_r.force.X	femur_lat_meniscii_r.femur_lat_r.force.Y	femur_lat_meniscii_r.femur_lat_r.force.Z	femur_lat_meniscii_r.femur_lat_r.torque.X	femur_lat_meniscii_r.femur_lat_r.torque.Y	femur_lat_meniscii_r.femur_lat_r.torque.Z	femur_lat_meniscii_r.meniscus_lat_r.force.X	femur_lat_meniscii_r.meniscus_lat_r.force.Y	femur_lat_meniscii_r.meniscus_lat_r.force.Z	femur_lat_meniscii_r.meniscus_lat_r.torque.X	femur_lat_meniscii_r.meniscus_lat_r.torque.Y	femur_lat_meniscii_r.meniscus_lat_r.torque.Z	femur_med_meniscii_r.femur_med_r.force.X	femur_med_meniscii_r.femur_med_r.force.Y	femur_med_meniscii_r.femur_med_r.force.Z	femur_med_meniscii_r.femur_med_r.torque.X	femur_med_meniscii_r.femur_med_r.torque.Y	femur_med_meniscii_r.femur_med_r.torque.Z	femur_med_meniscii_r.meniscus_med_r.force.X	femur_med_meniscii_r.meniscus_med_r.force.Y	femur_med_meniscii_r.meniscus_med_r.force.Z	femur_med_meniscii_r.meniscus_med_r.torque.X	femur_med_meniscii_r.meniscus_med_r.torque.Y	femur_med_meniscii_r.meniscus_med_r.torque.Z	femur_med_tibia_r.tibia_upper_r.force.X	femur_med_tibia_r.tibia_upper_r.force.Y	femur_med_tibia_r.tibia_upper_r.force.Z	femur_med_tibia_r.tibia_upper_r.torque.X	femur_med_tibia_r.tibia_upper_r.torque.Y	femur_med_tibia_r.tibia_upper_r.torque.Z	femur_med_tibia_r.femur_med_r.force.X	femur_med_tibia_r.femur_med_r.force.Y	femur_med_tibia_r.femur_med_r.force.Z	femur_med_tibia_r.femur_med_r.torque.X	femur_med_tibia_r.femur_med_r.torque.Y	femur_med_tibia_r.femur_med_r.torque.Z	femur_lat_tibia_r.tibia_upper_r.force.X	femur_lat_tibia_r.tibia_upper_r.force.Y	femur_lat_tibia_r.tibia_upper_r.force.Z	femur_lat_tibia_r.tibia_upper_r.torque.X	femur_lat_tibia_r.tibia_upper_r.torque.Y	femur_lat_tibia_r.tibia_upper_r.torque.Z	femur_lat_tibia_r.femur_lat_r.force.X	femur_lat_tibia_r.femur_lat_r.force.Y	femur_lat_tibia_r.femur_lat_r.force.Z	femur_lat_tibia_r.femur_lat_r.torque.X	femur_lat_tibia_r.femur_lat_r.torque.Y	femur_lat_tibia_r.femur_lat_r.torque.Z	femur_lat_meniscii_force_r	femur_med_meniscii_force_r	femur_lat_tibia_force_r	femur_med_tibia_force_r
      0.20909236	      0.01347044	      0.02619502	     81.49450912	      0.00000000	      0.00000000	    978.99761392	    635.95094389	     32.95689865	     20.16683407	      0.00000000	      0.00000000	      0.00000000	      0.00000000	      0.00000000	      0.00000000	      0.00000001	      0.00000000	      0.03098555	      0.02441198	      0.03719915	      0.03397190	      0.06150896	      0.05993369	      0.05657152	      0.05012397	      0.04469113	      0.03972072	      0.01525851	      0.01651186	      0.06550154	      0.04489616	     -0.00064334	     -0.02580807	      0.19629509	      0.13664789	      0.02468822	      0.00234460	     -0.03671974	     -0.10456451	     -0.20645872	     -0.24114112	      0.00000079	     -0.32847694	      0.00000060	     -0.00000086	     80.60370034	     64.02018725	     11.42507433	     -6.06124828	      1.92809494	     31.79277243	    -80.60370034	    -64.02018725	    -11.42507433	      1.73065976	     -2.45896979	      1.73420122	      0.04702381	      0.00164205	     -0.03003393	      0.01196323	     -0.00073586	      0.01868983	     -0.04702381	     -0.00164205	      0.03003393	     -0.00011358	      0.00142216	     -0.00009943	   -881.14226717	   -383.55820122	    304.01933048	     -8.21217003	     21.16683109	      3.09493264	    881.14226717	    383.55820122	   -304.01933048	    129.16578286	    -15.32960385	    354.83052174	   -326.17312737	   -156.27120030	    -96.67856180	      5.11623626	    -11.61744496	      1.52966852	    326.17312737	    156.27120030	     96.67856180	    -42.81744367	      8.10011646	    131.35168215	    103.56675725	      0.05582089	    374.37460033	   1007.94659681
      0.20932884	      0.01345684	      0.02623791	     81.62403507	      0.00000000	      0.00000000	    980.22289390	    633.97442482	     31.00727938	     17.95533004	      0.00000000	      0.00000000	      0.00000000	      0.00000000	      0.00000000	      0.00000000	      0.00000001	      0.00000000	      0.03098417	      0.02441836	      0.03721455	      0.03398537	      0.06151804	      0.05993989	      0.05657989	      0.05011536	      0.04468110	      0.03971363	      0.01525851	      0.01651186	      0.06550154	      0.04489616	     -0.00068797	     -0.02555366	      0.19679034	      0.13709845	      0.02483953	      0.00244819	     -0.03657720	     -0.10471843	     -0.20663691	     -0.24127672	      0.00000079	     -0.32847694	      0.00000060	     -0.00000086	     84.42504286	     65.00993051	     10.09614343	     -5.54821203	      2.00316303	     33.32326833	    -84.42504286	    -65.00993051	    -10.09614343	      1.74421702	     -2.50889847	      1.74262289	      0.04204158	     -0.00056467	     -0.02665474	      0.01059631	     -0.00065606	      0.01672640	     -0.04204158	      0.00056467	      0.02665474	     -0.00008427	      0.00126468	     -0.00015903	   -868.60152346	   -373.23896535	    302.46265050	     -8.05083314	     20.96733885	      2.94005557	    868.60152346	    373.23896535	   -302.46265050	    128.37658999	    -15.13482275	    349.80451574	   -323.18205355	   -151.43801763	    -93.97732257	      4.95579245	    -11.44163119	      1.40894161	    323.18205355	    151.43801763	     93.97732257	    -41.60851913	      8.00297177	    130.17862550	    107.03182256	      0.04978241	    369.06889611	    992.60243137
      0.20996417	      0.01342188	      0.02635641	     81.97223631	      0.00000000	      0.00000000	    982.91562817	    628.65778623	     25.39015010	     11.82190005	      0.00000000	      0.00000000	      0.00000000	      0.00000000	      0.00000000	      0.00000000	      0.00000001	      0.00000000	      0.03098022	      0.02443491	      0.03725145	      0.03401702	      0.06153886	      0.05995276	      0.05659856	      0.05008846	      0.04465040	      0.03969077	      0.01525851	      0.01651186	      0.06550154	      0.04489616	     -0.00081547	     -0.02489323	      0.19797695	      0.13815742	      0.02518638	      0.00266352	     -0.03625935	     -0.10519893	     -0.20718200	     -0.24171337	      0.00000079	     -0.32847694	      0.00000060	     -0.00000086	     95.12991072	     67.70416022	      7.45214259	     -4.54696812	      2.22450828	     37.61242521	    -95.12991072	    -67.70416022	     -7.45214259	      1.79313054	     -2.68928591	      1.76412981	      0.02740147	     -0.00303513	     -0.01863667	      0.00738091	     -0.00043772	      0.01092300	     -0.02740147	      0.00303513	      0.01863667	     -0.00003607	      0.00086946	     -0.00019421	   -854.11174032	   -355.51572276	    302.03726300	     -7.77811792	     20.78329723	      2.65228977	    854.11174032	    355.51572276	   -302.03726300	    127.92753259	    -14.91550743	    344.01724415	   -318.64210304	   -145.05256342	    -88.58499620	      4.70852742	    -11.12765507	      1.29824919	    318.64210304	    145.05256342	     88.58499620	    -39.26075639	      7.83936102	    128.37123073	    117.00037459	      0.03327729	    361.13756040	    973.20337151
      0.21053403	      0.01339229	      0.02646640	     82.28483438	      0.00000000	      0.00000000	    985.44140786	    625.81435987	     21.52311329	      7.71375761	      0.00000000	      0.00000000	      0.00000000	      0.00000000	      0.00000000	      0.00000000	      0.00000001	      0.00000000	      0.03097600	      0.02444861	      0.03727967	      0.03404050	      0.06155361	      0.05996020	      0.05661119	      0.05006028	      0.04461886	      0.03966625	      0.01525851	      0.01651186	      0.06550154	      0.04489616	     -0.00095145	     -0.02434657	      0.19888441	      0.13894304	      0.02543205	      0.00278794	     -0.03604424	     -0.10570226	     -0.20774204	     -0.24218177	      0.00000079	     -0.32847694	      0.00000060	     -0.00000086	    102.01991886	     69.82790280	      6.62641601	     -4.26568486	      2.37278585	     40.36264201	   -102.01991886	    -69.82790280	     -6.62641601	      1.84363181	     -2.83568432	      1.80508252	      0.02102035	     -0.00241452	     -0.01425033	      0.00564191	     -0.00033457	      0.00837880	     -0.02102035	      0.00241452	      0.01425033	     -0.00002449	      0.00066500	     -0.00014865	   -859.09838296	   -347.05448994	    304.95989600	     -7.65715162	     20.94116669	      2.45184333	    859.09838296	    347.05448994	   -304.95989600	    128.97405581	    -15.00194267	    346.06739465	   -319.38532218	   -142.50750680	    -87.71772748	      4.61907704	    -11.12088433	      1.25821112	    319.38532218	    142.50750680	     87.71772748	    -38.84395347	      7.84550204	    128.67777873	    123.80593379	      0.02550994	    360.56868033	    975.44727626
